<svg xmlns="http://www.w3.org/2000/svg" viewBox="0 0 32 32" fill="#58a6ff">
  <path d="M29.18 19l1.52-2.63a1 1 0 0 0-.37-1.37l-2.61-1.5a11.76 11.76 0 0 0-.1-2L30.23 10a1 1 0 0 0 0-2l-2.61-1.5a11.76 11.76 0 0 0 .1-2L29.18 3a1 1 0 0 0 .37-1.37L28.03.11a1 1 0 0 0-1.37-.37L24 1.26a11.94 11.94 0 0 0-1.73-1L21.5.61A1 1 0 0 0 20.5 0h-3a1 1 0 0 0-1 .61L15.73 2.26a11.94 11.94 0 0 0-1.73 1L11.34.74a1 1 0 0 0-1.37.37L8.45 3.63A1 1 0 0 0 8.82 5l1.56.9a11.76 11.76 0 0 0 .1 2L7.77 9.5a1 1 0 0 0 0 2l2.61 1.5a11.76 11.76 0 0 0-.1 2L8.82 16a1 1 0 0 0-.37 1.37l1.52 2.63a1 1 0 0 0 1.37.37L14 19.74a11.94 11.94 0 0 0 1.73 1l.77 1.65a1 1 0 0 0 1 .61h3a1 1 0 0 0 1-.61l.77-1.65a11.94 11.94 0 0 0 1.73-1l2.66 1.52a1 1 0 0 0 1.37-.37zM16 20.5A4.5 4.5 0 1 1 20.5 16 4.51 4.51 0 0 1 16 20.5z"/>
  <rect x="4" y="24" width="24" height="6" rx="1" fill="#58a6ff"/>
  <rect x="6" y="26" width="2" height="2" fill="#0d1117"/>
  <rect x="10" y="26" width="2" height="2" fill="#0d1117"/>
  <rect x="14" y="26" width="2" height="2" fill="#0d1117"/>
  <rect x="18" y="26" width="2" height="2" fill="#0d1117"/>
  <rect x="22" y="26" width="2" height="2" fill="#0d1117"/>
</svg>
